<mxfile host="Electron" modified="2023-08-07T14:27:33.696Z" agent="Mozilla/5.0 (Windows NT 10.0; Win64; x64) AppleWebKit/537.36 (KHTML, like Gecko) draw.io/21.6.5 Chrome/114.0.5735.243 Electron/25.3.1 Safari/537.36" etag="VL4PsYODhULl_CDGt_mX" version="21.6.5" type="device">
  <diagram name="Page-1" id="MSSM_wWFoqN1TzVuejPE">
    <mxGraphModel dx="880" dy="545" grid="1" gridSize="10" guides="1" tooltips="1" connect="1" arrows="1" fold="1" page="1" pageScale="1" pageWidth="1169" pageHeight="827" math="0" shadow="0">
      <root>
        <mxCell id="0" />
        <mxCell id="1" parent="0" />
        <mxCell id="xcg0EofvJoA7gcqa5uO5-3" value="" style="fontStyle=1;align=center;verticalAlign=middle;childLayout=stackLayout;horizontal=1;horizontalStack=0;resizeParent=1;resizeParentMax=0;resizeLast=0;marginBottom=0;" vertex="1" parent="1">
          <mxGeometry x="160" y="40" width="330" height="280" as="geometry" />
        </mxCell>
        <mxCell id="xcg0EofvJoA7gcqa5uO5-4" value="«component»&lt;br&gt;&lt;b&gt;Order&lt;/b&gt;" style="html=1;align=center;spacingLeft=4;verticalAlign=top;strokeColor=none;fillColor=none;whiteSpace=wrap;" vertex="1" parent="xcg0EofvJoA7gcqa5uO5-3">
          <mxGeometry width="330" height="40" as="geometry" />
        </mxCell>
        <mxCell id="xcg0EofvJoA7gcqa5uO5-5" value="" style="shape=module;jettyWidth=10;jettyHeight=4;" vertex="1" parent="xcg0EofvJoA7gcqa5uO5-4">
          <mxGeometry x="1" width="16" height="20" relative="1" as="geometry">
            <mxPoint x="-25" y="9" as="offset" />
          </mxGeometry>
        </mxCell>
        <mxCell id="xcg0EofvJoA7gcqa5uO5-6" value="" style="line;strokeWidth=1;fillColor=none;align=left;verticalAlign=middle;spacingTop=-1;spacingLeft=3;spacingRight=3;rotatable=0;labelPosition=right;points=[];portConstraint=eastwest;" vertex="1" parent="xcg0EofvJoA7gcqa5uO5-3">
          <mxGeometry y="40" width="330" height="8" as="geometry" />
        </mxCell>
        <mxCell id="xcg0EofvJoA7gcqa5uO5-7" value="packaged elements" style="html=1;align=center;spacingLeft=4;verticalAlign=top;strokeColor=none;fillColor=none;whiteSpace=wrap;" vertex="1" parent="xcg0EofvJoA7gcqa5uO5-3">
          <mxGeometry y="48" width="330" height="25" as="geometry" />
        </mxCell>
        <mxCell id="xcg0EofvJoA7gcqa5uO5-25" style="edgeStyle=orthogonalEdgeStyle;rounded=0;orthogonalLoop=1;jettySize=auto;html=1;exitX=1;exitY=0.5;exitDx=0;exitDy=0;verticalAlign=bottom;labelBackgroundColor=none;startArrow=halfCircle;startFill=0;startSize=2;endArrow=none;entryX=1;entryY=0.5;entryDx=0;entryDy=0;" edge="1" parent="xcg0EofvJoA7gcqa5uO5-3" target="xcg0EofvJoA7gcqa5uO5-8">
          <mxGeometry relative="1" as="geometry">
            <mxPoint x="390" y="176.41379310344826" as="sourcePoint" />
          </mxGeometry>
        </mxCell>
        <mxCell id="xcg0EofvJoA7gcqa5uO5-26" value="Person" style="edgeLabel;html=1;align=center;verticalAlign=middle;resizable=0;points=[];" vertex="1" connectable="0" parent="xcg0EofvJoA7gcqa5uO5-25">
          <mxGeometry x="-0.2532" y="2" relative="1" as="geometry">
            <mxPoint x="21" y="-17" as="offset" />
          </mxGeometry>
        </mxCell>
        <mxCell id="xcg0EofvJoA7gcqa5uO5-8" value="&amp;nbsp;" style="html=1;align=left;spacingLeft=4;verticalAlign=top;strokeColor=none;fillColor=none;whiteSpace=wrap;" vertex="1" parent="xcg0EofvJoA7gcqa5uO5-3">
          <mxGeometry y="73" width="330" height="207" as="geometry" />
        </mxCell>
        <mxCell id="xcg0EofvJoA7gcqa5uO5-20" value="" style="group" vertex="1" connectable="0" parent="1">
          <mxGeometry x="275" y="135" width="100" height="170" as="geometry" />
        </mxCell>
        <mxCell id="xcg0EofvJoA7gcqa5uO5-13" value="&lt;b&gt;OrderHeader&lt;/b&gt;" style="whiteSpace=wrap;html=1;" vertex="1" parent="xcg0EofvJoA7gcqa5uO5-20">
          <mxGeometry width="100" height="30" as="geometry" />
        </mxCell>
        <mxCell id="xcg0EofvJoA7gcqa5uO5-14" value="&lt;b&gt;LineItem&lt;/b&gt;" style="whiteSpace=wrap;html=1;" vertex="1" parent="xcg0EofvJoA7gcqa5uO5-20">
          <mxGeometry y="140" width="100" height="30" as="geometry" />
        </mxCell>
        <mxCell id="xcg0EofvJoA7gcqa5uO5-15" style="edgeStyle=orthogonalEdgeStyle;rounded=0;orthogonalLoop=1;jettySize=auto;html=1;startArrow=diamondThin;startFill=1;startSize=12;endArrow=none;endFill=0;" edge="1" parent="xcg0EofvJoA7gcqa5uO5-20" source="xcg0EofvJoA7gcqa5uO5-13" target="xcg0EofvJoA7gcqa5uO5-14">
          <mxGeometry relative="1" as="geometry" />
        </mxCell>
        <mxCell id="xcg0EofvJoA7gcqa5uO5-16" value="1" style="edgeLabel;html=1;align=center;verticalAlign=middle;resizable=0;points=[];" vertex="1" connectable="0" parent="xcg0EofvJoA7gcqa5uO5-15">
          <mxGeometry x="-0.5818" relative="1" as="geometry">
            <mxPoint x="10" as="offset" />
          </mxGeometry>
        </mxCell>
        <mxCell id="xcg0EofvJoA7gcqa5uO5-17" value="order" style="edgeLabel;html=1;align=center;verticalAlign=middle;resizable=0;points=[];" vertex="1" connectable="0" parent="xcg0EofvJoA7gcqa5uO5-15">
          <mxGeometry x="-0.5818" relative="1" as="geometry">
            <mxPoint x="-20" as="offset" />
          </mxGeometry>
        </mxCell>
        <mxCell id="xcg0EofvJoA7gcqa5uO5-18" value="item" style="edgeLabel;html=1;align=center;verticalAlign=middle;resizable=0;points=[];" vertex="1" connectable="0" parent="xcg0EofvJoA7gcqa5uO5-15">
          <mxGeometry x="0.5818" y="-2" relative="1" as="geometry">
            <mxPoint x="-18" y="5" as="offset" />
          </mxGeometry>
        </mxCell>
        <mxCell id="xcg0EofvJoA7gcqa5uO5-19" value="1" style="edgeLabel;html=1;align=center;verticalAlign=middle;resizable=0;points=[];" vertex="1" connectable="0" parent="xcg0EofvJoA7gcqa5uO5-15">
          <mxGeometry x="0.7273" y="1" relative="1" as="geometry">
            <mxPoint x="10" as="offset" />
          </mxGeometry>
        </mxCell>
        <mxCell id="xcg0EofvJoA7gcqa5uO5-21" value="OrderEntry" style="html=1;verticalAlign=bottom;labelBackgroundColor=none;startArrow=oval;startFill=0;startSize=8;endArrow=none;rounded=0;entryX=0;entryY=0.5;entryDx=0;entryDy=0;" edge="1" parent="1" target="xcg0EofvJoA7gcqa5uO5-8">
          <mxGeometry x="-1" y="3" relative="1" as="geometry">
            <mxPoint x="100" y="217" as="sourcePoint" />
            <mxPoint x="170" y="200" as="targetPoint" />
          </mxGeometry>
        </mxCell>
        <mxCell id="xcg0EofvJoA7gcqa5uO5-22" value="&lt;b&gt;Figure 11.45 An alternative nested representation of a complex Component&lt;/b&gt;" style="text;html=1;align=left;verticalAlign=middle;resizable=0;points=[];autosize=1;strokeColor=none;fillColor=none;" vertex="1" parent="1">
          <mxGeometry x="100" y="338" width="450" height="30" as="geometry" />
        </mxCell>
      </root>
    </mxGraphModel>
  </diagram>
</mxfile>
